<mxfile host="app.diagrams.net" modified="2024-02-08T21:38:57.111Z" agent="Mozilla/5.0 (Linux; Android 14; SAMSUNG SM-A546E) AppleWebKit/537.36 (KHTML, like Gecko) SamsungBrowser/23.0 Chrome/115.0.0.0 Mobile Safari/537.36" version="23.1.2" etag="SRQ0UJx70D0_hlG5nPCN" type="github">
  <diagram name="PÃ¡gina-1" id="960etYWL-9kqXNCr96o-">
    <mxGraphModel>
      <root>
        <mxCell id="0" />
        <mxCell id="1" parent="0" />
      </root>
    </mxGraphModel>
  </diagram>
</mxfile>
